#N canvas 1536 116 1450 1513 12;
#X obj 233 247 *~ 1000;
#X obj 146 279 noise~;
#X obj 110 488 dac~;
#X text 234 367 <-- bandpass filter;
#X text 18 164 Low Frequency oscillator-->;
#X text 293 245 <-- scaling factor;
#X text 228 515 <-- adjust volume;
#X text 75 279 Input-->;
#X text 35 488 Output-->;
#X obj 110 425 *~;
#X floatatom 196 637 5 0 0 0 - - - 0;
#X obj 193 437 vsl 19 162 0 2 0 0 empty empty empty 0 -9 0 12 #fcfcfc #000000 #000000 0 1;
#X obj 292 115 hsl 162 19 1 3 0 0 empty empty empty -2 -10 0 12 #fcfcfc #000000 #000000 0 1;
#X floatatom 289 139 5 0 0 0 - - - 0;
#X obj 146 365 vcf~ 700 3;
#X obj 233 165 osc~;
#X obj 233 321 +~;
#X obj 294 292 hsl 162 19 300 1300 0 0 empty empty empty -2 -10 0 12 #fcfcfc #000000 #000000 0 1;
#X floatatom 291 326 5 0 0 0 - - - 0;
#X text 461 292 <-- adjust center frequency;
#X connect 0 0 16 0;
#X connect 1 0 14 0;
#X connect 9 0 2 0;
#X connect 9 0 2 1;
#X connect 10 0 9 1;
#X connect 11 0 10 0;
#X connect 12 0 13 0;
#X connect 13 0 15 0;
#X connect 14 0 9 0;
#X connect 15 0 0 0;
#X connect 16 0 14 1;
#X connect 17 0 18 0;
#X connect 18 0 16 1;
